HIERARCHY
ROOT Hips
{
    OFFSET 0.000000 0.000000 0.000000
    CHANNELS 6 Xposition Yposition Zposition Zrotation Xrotation Yrotation
    JOINT Spine
    {
        OFFSET -0.000000 7.925200 0.000000
        CHANNELS 3 Zrotation Xrotation Yrotation
        JOINT Spine1
        {
            OFFSET -0.000000 23.364719 0.000000
            CHANNELS 3 Zrotation Xrotation Yrotation
            JOINT Neck
            {
                OFFSET -0.000000 23.268766 2.115342
                CHANNELS 3 Zrotation Xrotation Yrotation
                JOINT Head
                {
                    OFFSET -0.000000 13.530829 -1.932976
                    CHANNELS 3 Zrotation Xrotation Yrotation
                    End Site
                    {
                        OFFSET -0.000000 24.162195 0.000000
                    }
                }
            }
            JOINT LeftShoulder
            {
                OFFSET 3.858291 22.792089 -0.033814
                CHANNELS 3 Zrotation Xrotation Yrotation
                JOINT LeftArm
                {
                    OFFSET 7.057024 0.000000 0.000000
                    CHANNELS 3 Zrotation Xrotation Yrotation
                    JOINT LeftForeArm
                    {
                        OFFSET 34.734173 0.000000 0.000000
                        CHANNELS 3 Zrotation Xrotation Yrotation
                        JOINT LeftHand
                        {
                            OFFSET 23.943203 0.000000 0.000000
                            CHANNELS 3 Zrotation Xrotation Yrotation
                            End Site
                            {
                                OFFSET 14.497317 0.000000 0.000000
                            }
                        }
                    }
                }
            }
            JOINT RightShoulder
            {
                OFFSET -3.868823 22.792089 -0.033814
                CHANNELS 3 Zrotation Xrotation Yrotation
                JOINT RightArm
                {
                    OFFSET -7.057024 0.000000 0.000000
                    CHANNELS 3 Zrotation Xrotation Yrotation
                    JOINT RightForeArm
                    {
                        OFFSET -34.734173 0.000000 0.000000
                        CHANNELS 3 Zrotation Xrotation Yrotation
                        JOINT RightHand
                        {
                            OFFSET -23.943203 0.000000 0.000000
                            CHANNELS 3 Zrotation Xrotation Yrotation
                            End Site
                            {
                                OFFSET -14.497317 0.000000 0.000000
                            }
                        }
                    }
                }
            }
        }
    }
    JOINT LeftUpLeg
    {
        OFFSET 9.664878 0.000000 0.000000
        CHANNELS 3 Zrotation Xrotation Yrotation
        JOINT LeftLeg
        {
            OFFSET -0.000000 -38.728706 0.000000
            CHANNELS 3 Zrotation Xrotation Yrotation
            JOINT LeftFoot
            {
                OFFSET -0.000000 -40.242161 0.000000
                CHANNELS 3 Zrotation Xrotation Yrotation
                JOINT LeftToeBase
                {
                    OFFSET -0.000000 -6.282171 14.497317
                    CHANNELS 3 Zrotation Xrotation Yrotation
                    End Site
                    {
                        OFFSET -0.000000 0.000000 3.865951
                    }
                }
            }
        }
    }
    JOINT RightUpLeg
    {
        OFFSET -9.664878 0.000000 0.000000
        CHANNELS 3 Zrotation Xrotation Yrotation
        JOINT RightLeg
        {
            OFFSET -0.000000 -38.728706 0.000000
            CHANNELS 3 Zrotation Xrotation Yrotation
            JOINT RightFoot
            {
                OFFSET -0.000000 -40.242161 0.000000
                CHANNELS 3 Zrotation Xrotation Yrotation
                JOINT RightToeBase
                {
                    OFFSET -0.000000 -6.282171 14.497317
                    CHANNELS 3 Zrotation Xrotation Yrotation
                    End Site
                    {
                        OFFSET -0.000000 0.000000 3.865951
                    }
                }
            }
        }
    }
}
MOTION
Frames:    5
Frame Time:    0.008333
42.385067    90.232613    28.557068    -1.330807    -0.584448    87.318390    0.998512    -3.260495    0.959436    0.017938    7.840124    0.929795    -0.692232    7.094547    4.736674    -3.257519    0.327016    4.533946    -0.731646    4.831036    2.644735    -32.565197    70.031288    -26.546844    7.908068    -14.720145    -32.923500    -10.376337    -12.113255    -3.741616    -0.086622    6.562654    3.797399    26.750149    64.510155    35.624935    -1.732637    -15.184548    22.755730    0.858569    -14.829780    2.490132    5.081550    -10.629851    5.524547    -6.122425    32.553722    -0.713264    -3.825543    -3.427497    3.754967    0.000000    0.000000    0.000000    3.632024    -13.011955    -0.366799    -2.813381    33.404957    2.355742    5.856880    -1.076237    -6.348069    0.000000    0.000000    0.000000    
42.376541    88.823677    28.522305    -0.905599    -0.494312    87.382103    0.780011    -2.778230    0.884351    0.310728    7.609244    0.844806    -1.145478    7.478706    4.776850    -2.822244    -0.036378    4.662198    -1.048772    4.721644    2.631355    -32.330845    69.878967    -26.718790    7.637361    -14.447678    -32.450150    -10.510550    -11.912397    -4.111771    -0.452233    6.632784    3.819919    26.829359    64.249741    35.859783    -1.453607    -15.257590    22.420879    0.800842    -14.960725    2.780660    5.255243    -11.031272    5.559155    -6.600389    35.082649    -1.509879    -2.685216    -7.806557    4.198976    0.000000    0.000000    0.000000    3.462712    -13.152484    -0.543713    -2.875033    35.399521    2.667194    4.869221    -5.922040    -5.966371    0.000000    0.000000    0.000000    
42.366810    87.420883    28.519753    -0.451919    -0.479638    87.471344    0.625367    -2.176064    0.766613    0.636251    7.259869    0.714351    -1.599597    7.842973    4.817655    -2.555045    -0.349713    4.767595    -1.384275    4.419873    2.736102    -32.393360    69.883698    -26.636927    7.403212    -14.093822    -31.826632    -10.507490    -11.632033    -4.475864    -0.892226    6.714702    3.928720    27.217613    63.882607    35.965786    -1.119120    -15.224432    21.920401    0.473257    -15.003458    2.956569    5.616728    -11.499628    5.609569    -7.244987    37.745197    -2.167994    -1.110892    -11.969874    4.692621    0.000000    0.000000    0.000000    3.364300    -13.317019    -0.588013    -2.903231    37.493576    3.103955    3.861975    -10.677976    -5.841505    0.000000    0.000000    0.000000    
42.336594    86.010399    28.496412    0.049828    -0.442054    87.553391    0.417545    -1.446457    0.625119    1.177324    6.856763    0.549365    -2.362918    7.985128    4.903613    -2.222969    -0.400192    4.960958    -1.979064    4.027325    2.990491    -32.664532    69.898354    -26.442387    7.413720    -13.662343    -30.809961    -10.749615    -11.208296    -4.967414    -1.619429    6.895895    3.982967    27.538044    63.294918    36.437603    -0.816365    -14.942855    21.125854    0.470496    -14.782270    3.397076    5.920836    -11.996405    5.590082    -8.040887    40.457336    -1.800724    0.446955    -15.924953    4.711322    0.000000    0.000000    0.000000    3.223372    -13.564846    -0.544535    -2.804015    39.766323    3.415662    2.782209    -15.301093    -6.005428    0.000000    0.000000    0.000000    
42.286568    84.702866    28.469463    0.414535    -0.414183    87.731483    0.480017    -0.628660    0.324516    1.290537    5.979474    0.254535    -3.165994    8.557738    5.133955    -1.740092    -0.742468    5.311113    -2.831739    4.012922    3.416534    -32.089550    69.742668    -26.594263    7.066188    -13.278510    -29.863945    -10.581298    -10.940145    -5.450366    -1.972411    7.376529    4.500528    28.056925    62.616699    36.582382    -0.479053    -14.748802    20.180387    -0.233365    -14.672971    3.350180    6.250264    -12.636595    5.748930    -8.856649    43.080166    -1.650423    2.082592    -19.415062    5.076549    0.000000    0.000000    0.000000    3.057625    -14.054682    -0.704542    -2.763921    42.061035    4.191000    1.355763    -19.215046    -6.594817    0.000000    0.000000    0.000000    
